<?xml version="1.0" standalone="no"?>
<!DOCTYPE svg PUBLIC "-//W3C//DTD SVG 20010904//EN"
 "http://www.w3.org/TR/2001/REC-SVG-20010904/DTD/svg10.dtd">
<svg version="1.0" xmlns="http://www.w3.org/2000/svg"
 width="208.000000pt" height="242.000000pt" viewBox="0 0 208.000000 242.000000"
 preserveAspectRatio="xMidYMid meet">

<g transform="translate(0.000000,242.000000) scale(0.100000,-0.100000)"
fill="#000000" stroke="none">
<path d="M946 2413 c-3 -3 -29 -8 -58 -10 -68 -6 -80 -17 -76 -67 3 -42 -19
-106 -37 -106 -26 0 -92 24 -114 41 -29 23 -64 25 -81 4 -7 -8 -23 -15 -36
-15 -16 0 -32 -13 -54 -45 -18 -26 -46 -51 -65 -59 -23 -10 -35 -23 -40 -44
-3 -16 -17 -44 -31 -63 -33 -45 -31 -62 16 -110 22 -23 40 -45 40 -50 0 -15
62 -79 76 -79 7 0 22 10 34 22 l20 22 0 -25 c0 -13 -10 -40 -21 -59 -23 -37
-38 -164 -24 -197 5 -10 10 -27 12 -38 2 -10 11 -30 21 -43 9 -14 22 -32 27
-41 32 -52 73 -75 58 -33 -5 13 -3 14 6 6 15 -14 10 -50 -7 -47 -16 4 -16 -14
0 -19 8 -3 11 -19 10 -44 -2 -21 4 -73 13 -115 11 -56 13 -84 5 -104 -5 -14
-10 -45 -10 -68 0 -72 -8 -86 -48 -89 -22 -2 -39 -10 -46 -22 -6 -11 -19 -28
-29 -38 -11 -12 -15 -27 -11 -42 4 -18 -2 -29 -26 -49 -29 -25 -30 -28 -16
-43 9 -8 17 -25 17 -37 1 -14 4 -9 9 13 6 28 8 30 9 10 1 -20 3 -22 11 -10 7
11 10 5 10 -23 0 -21 4 -36 9 -33 5 3 14 -1 21 -9 13 -15 5 -55 -14 -67 -8 -6
-7 -8 2 -8 6 0 12 -7 12 -15 0 -18 -26 -20 -33 -2 -3 7 -6 5 -6 -5 -1 -12 6
-18 21 -18 20 0 20 -1 5 -18 -10 -10 -17 -34 -17 -53 0 -23 -3 -30 -9 -20 -7
11 -9 11 -14 0 -3 -8 -4 33 -2 91 3 96 3 98 -4 28 -9 -104 -18 -107 -14 -5 7
144 -27 243 -42 122 -4 -30 -11 -58 -16 -61 -15 -9 -10 -44 6 -50 10 -4 15
-20 15 -48 0 -24 10 -58 23 -81 20 -36 28 -41 77 -50 52 -9 55 -12 52 -37 -2
-20 4 -31 24 -45 26 -17 59 -18 437 -18 393 0 409 1 423 19 8 11 14 32 14 48
0 15 5 28 10 28 6 0 10 5 10 10 0 12 -22 9 -31 -4 -4 -4 -10 -3 -13 3 -4 6 -4
11 1 12 4 0 17 2 28 4 11 2 23 -1 27 -8 5 -9 16 -7 43 7 40 22 85 94 85 136 0
15 7 33 15 40 8 7 15 20 15 30 0 10 -7 23 -15 30 -12 10 -15 10 -15 -4 0 -9 5
-16 10 -16 14 0 13 -27 -1 -32 -6 -2 -15 -22 -19 -43 -6 -29 -8 -12 -8 65 0
67 3 98 8 85 6 -14 9 -15 9 -5 1 8 -14 38 -32 65 -25 38 -38 49 -55 48 -12 -2
-22 2 -22 8 0 5 -4 7 -10 4 -5 -3 -10 -2 -10 4 0 5 5 11 11 13 7 2 3 18 -11
41 -19 31 -20 37 -6 37 9 0 16 -8 16 -18 0 -10 14 -29 30 -44 38 -33 38 -22 0
30 -25 35 -36 42 -64 42 -34 0 -35 1 -57 72 -13 39 -25 66 -27 60 -2 -7 1 -27
7 -45 27 -82 16 -133 -14 -64 -10 23 -14 26 -14 12 -1 -26 8 -39 37 -54 12 -6
22 -18 22 -26 0 -8 9 -21 21 -29 20 -14 19 -36 -2 -36 -6 0 -7 5 -3 12 5 8 2
9 -9 5 -13 -5 -17 -1 -17 18 0 13 -4 26 -9 29 -4 3 -6 -5 -4 -18 3 -13 -1 -27
-8 -31 -18 -12 -54 39 -74 104 -9 31 -29 83 -43 116 -22 50 -26 70 -22 125 2
36 4 102 5 148 0 45 3 82 6 82 4 0 25 -20 48 -45 45 -49 45 -49 43 -225 l-1
-85 10 75 c5 41 8 101 7 133 -3 62 6 73 23 30 10 -26 8 -94 -5 -183 l-6 -35
14 40 c8 22 15 72 15 112 1 65 5 80 42 150 23 43 48 85 55 94 8 8 14 25 14 37
0 11 5 24 10 27 6 3 10 19 10 35 0 16 5 32 10 35 10 6 9 30 -4 136 -1 14 -13
44 -26 67 -13 23 -21 45 -17 48 3 4 12 -5 18 -19 22 -48 38 -42 126 47 91 93
100 117 59 156 -16 14 -26 36 -28 58 -3 38 -24 55 -80 67 -16 3 -28 11 -28 19
0 23 -42 68 -76 82 -38 16 -74 7 -114 -30 -14 -13 -40 -26 -58 -29 -28 -6 -34
-3 -42 17 -5 13 -14 27 -19 31 -6 3 -11 24 -11 45 0 21 -4 42 -10 45 -5 3 -10
15 -10 26 0 21 -43 44 -66 35 -8 -3 -15 -2 -18 3 -5 8 -212 12 -220 4z m34
-54 c0 -11 -3 -19 -8 -19 -12 0 -33 40 -26 51 9 14 34 -9 34 -32z m35 3 c0
-19 5 -32 12 -32 8 0 12 11 11 31 -2 19 2 34 10 36 8 3 13 -7 14 -29 l1 -33 4
33 c4 32 16 41 29 21 4 -8 9 -8 17 0 6 6 17 11 24 11 11 0 10 -6 -2 -30 -21
-40 -20 -44 20 -59 19 -7 42 -24 50 -39 15 -27 15 -27 13 -3 -2 15 -14 31 -32
41 -16 8 -34 23 -40 32 -14 23 10 50 41 46 33 -4 73 -90 55 -119 -7 -11 -8
-19 -2 -19 5 0 17 -11 25 -24 13 -19 14 -29 6 -45 -6 -11 -7 -21 -2 -23 13 -4
16 -56 7 -97 -5 -21 -11 -29 -16 -21 -5 7 -9 0 -12 -19 -3 -18 -1 -34 3 -37
12 -7 -9 -54 -34 -75 -26 -22 -38 -24 -31 -5 3 8 1 17 -4 20 -5 3 -9 -9 -10
-27 0 -17 -8 -37 -18 -44 -25 -18 -37 -16 -30 4 6 16 6 16 -12 0 -29 -27 -49
-22 -48 12 1 24 5 29 21 28 11 -1 23 -6 27 -12 5 -6 8 -5 8 3 0 7 5 10 10 7 6
-3 10 -1 10 5 0 6 4 9 9 6 5 -4 12 7 16 24 4 16 11 33 17 36 7 4 8 2 4 -4 -4
-7 -5 -12 -2 -12 12 0 45 70 40 85 -4 9 -10 13 -13 8 -11 -16 -61 -43 -61 -34
0 6 11 27 25 47 14 20 25 32 25 26 0 -6 7 -9 16 -5 8 3 13 12 10 20 -3 8 1 27
9 43 20 38 19 50 -5 80 l-21 25 12 -27 c10 -24 9 -31 -6 -48 -24 -27 -39 -25
-53 5 -6 14 -8 25 -4 25 5 0 17 7 28 16 18 15 18 15 -3 5 -27 -14 -80 -14 -88
-1 -9 15 12 48 36 55 13 4 28 0 42 -12 l22 -18 -19 23 c-25 29 -57 28 -85 -2
-19 -20 -21 -28 -12 -44 6 -12 11 -25 11 -30 0 -14 -25 -22 -49 -15 -18 5 -21
10 -15 40 11 58 -43 94 -91 59 -10 -7 -20 -21 -21 -30 -2 -18 11 -22 21 -6 9
14 45 13 45 -2 0 -6 3 -8 6 -5 13 13 -19 38 -40 32 -19 -5 -19 -5 -3 5 29 18
59 3 55 -28 -3 -25 -6 -27 -48 -26 -40 0 -42 -1 -19 -9 l26 -10 -22 -33 c-15
-21 -21 -42 -17 -56 3 -12 1 -19 -4 -15 -6 3 -8 -9 -6 -29 2 -19 10 -34 17
-34 7 0 18 -6 24 -14 17 -21 -5 -31 -25 -12 -8 9 -20 16 -25 16 -5 0 -9 8 -10
18 0 9 -5 2 -10 -15 -11 -37 -24 -41 -51 -16 -25 23 -22 46 7 60 21 9 25 9 26
-5 0 -11 2 -12 6 -4 2 6 10 9 15 5 7 -4 9 2 6 15 -4 12 -2 25 3 28 16 9 9 38
-16 69 -24 29 -25 29 -25 7 0 -13 5 -32 11 -43 8 -16 7 -25 -7 -40 -31 -35
-49 -24 -51 31 -1 28 2 50 7 50 6 0 10 -9 10 -19 0 -22 16 -36 24 -22 3 5 -3
20 -14 34 -20 26 -25 53 -14 81 8 21 21 20 27 -1 3 -10 4 2 4 27 -1 25 -6 48
-11 51 -16 12 3 39 27 39 13 0 28 5 35 12 9 9 16 7 32 -7 11 -10 20 -25 20
-33 0 -12 -4 -11 -22 4 -19 15 -20 16 -9 2 15 -20 2 -25 -16 -7 -8 8 -16 8
-30 0 -10 -6 -13 -11 -5 -11 7 0 10 -6 7 -12 -4 -7 0 -5 8 5 11 13 16 15 20 5
2 -7 -6 -25 -19 -41 -14 -16 -21 -34 -17 -44 4 -11 9 -7 17 18 9 27 20 37 61
53 64 26 60 22 47 50 -11 25 -6 39 12 33 6 -2 11 -18 11 -35z m-357 -129 c15
-33 16 -83 1 -83 -6 0 -8 -9 -4 -21 6 -16 4 -20 -6 -14 -11 6 -12 5 -1 -6 13
-14 17 -59 4 -59 -4 0 -13 5 -20 12 -9 9 -12 9 -12 0 0 -7 4 -12 9 -12 5 0 12
-8 16 -19 6 -21 -3 -51 -16 -51 -4 0 -6 7 -3 15 4 10 -3 18 -20 25 -25 9 -38
33 -15 28 22 -5 20 20 -2 27 l-21 7 23 12 c16 8 25 21 26 41 1 19 0 22 -4 10
-7 -27 -23 -45 -39 -45 -12 0 -11 5 2 25 17 26 15 29 -49 49 -12 4 -17 14 -15
28 2 18 9 22 27 20 20 -2 22 0 11 14 -12 13 -10 14 12 9 15 -4 29 -2 32 4 14
21 51 12 64 -16z m862 2 c6 -8 8 -20 4 -27 -6 -10 -4 -10 9 0 14 12 17 11 23
-12 8 -32 -3 -48 -27 -41 -13 4 -19 2 -19 -9 0 -9 -18 -25 -40 -36 -22 -11
-40 -27 -40 -35 0 -24 -20 -27 -28 -4 l-9 23 -5 -22 c-4 -15 -14 -22 -31 -22
-14 0 -28 -6 -30 -12 -4 -10 -8 -9 -16 2 -9 12 -11 9 -12 -15 -1 -16 0 -40 0
-52 1 -11 -3 -24 -8 -28 -6 -3 -11 -14 -10 -23 0 -13 3 -12 11 6 6 12 15 22
20 22 11 0 10 -58 -2 -65 -5 -3 -10 -14 -10 -23 0 -14 2 -13 13 3 20 26 29 4
11 -30 -16 -32 -12 -44 11 -25 18 15 21 -1 5 -31 -16 -28 -23 -24 -41 24 -39
101 -41 118 -21 192 10 39 23 71 30 71 25 3 25 4 7 18 -17 12 -18 15 -3 30 9
9 29 21 45 27 16 7 23 13 15 16 -7 3 -24 -2 -37 -11 -30 -20 -35 -20 -35 -2 0
23 56 57 82 51 18 -4 27 1 40 25 14 24 24 30 51 30 19 0 40 -7 47 -15z m-800
-15 c12 -8 9 -10 -12 -10 -16 0 -28 5 -28 10 0 13 20 13 40 0z m60 -21 c11
-19 10 -20 -9 -9 -22 11 -29 30 -11 30 5 0 14 -9 20 -21z m-16 -20 c14 -11 26
-27 26 -35 0 -23 -16 -16 -29 12 -6 15 -14 24 -17 21 -3 -3 2 -17 12 -32 17
-26 17 -28 -1 -41 -15 -11 -16 -16 -5 -29 13 -16 7 -45 -10 -45 -5 0 -10 7
-10 15 0 8 -6 15 -13 15 -27 0 -45 33 -41 75 3 22 6 46 9 53 7 19 49 14 79 -9z
m257 -36 c38 -15 79 -1 86 27 7 26 23 26 23 0 0 -10 -8 -24 -17 -30 -12 -8
-13 -10 -3 -7 8 2 20 14 27 27 10 21 13 22 19 7 9 -23 -13 -47 -45 -48 -22 -2
-23 -2 -4 -6 12 -2 34 4 49 14 21 14 26 14 22 3 -2 -8 -15 -21 -29 -27 -24
-12 -24 -13 -2 -13 12 0 27 9 33 20 12 23 30 18 30 -7 0 -9 -3 -13 -6 -10 -4
3 -18 -3 -32 -13 -39 -31 -89 -22 -120 22 -7 10 -26 25 -41 33 -28 14 -45 47
-32 60 3 4 7 -4 9 -17 2 -16 13 -28 33 -35z m-496 16 c42 -25 41 -40 -6 -56
l-34 -12 32 0 c32 -1 51 -26 44 -59 -3 -15 29 -43 41 -36 3 2 9 -5 13 -16 3
-11 10 -20 15 -20 5 0 11 -8 14 -17 4 -15 5 -14 4 2 -1 11 4 33 10 48 7 16 12
34 12 42 0 27 19 25 51 -4 22 -20 30 -35 25 -47 -6 -15 -8 -15 -24 -2 -9 8
-26 18 -37 21 -14 5 -12 0 9 -17 32 -27 66 -39 66 -25 0 5 9 4 20 -3 25 -16
26 -55 4 -106 l-16 -37 -10 34 c-10 36 -3 54 12 31 7 -10 10 -11 10 -2 0 7 -5
21 -12 31 -14 23 -38 6 -30 -22 3 -11 -1 -23 -9 -27 -7 -5 -14 -19 -14 -31 0
-16 -8 -25 -25 -29 -21 -5 -22 -7 -7 -13 24 -9 22 -48 -3 -54 -19 -5 -20 -7
-4 -24 15 -16 14 -19 -5 -35 -15 -14 -18 -21 -9 -31 8 -10 7 -18 -5 -31 -12
-14 -14 -21 -6 -29 13 -13 5 -43 -10 -43 -6 0 -8 6 -5 14 3 9 -5 21 -20 31
-14 10 -26 24 -26 31 0 17 16 19 26 3 4 -8 9 -8 17 0 7 7 6 16 -6 29 -24 26
-22 45 3 37 25 -8 27 11 4 36 -21 23 -10 43 17 29 25 -14 24 -2 -2 26 -26 28
-16 48 19 39 26 -6 26 -6 8 14 -17 19 -21 20 -36 6 -25 -22 -43 -20 -30 4 8
16 5 26 -15 49 -14 17 -25 35 -25 41 0 17 21 13 35 -6 7 -9 14 -12 17 -7 3 5
-9 26 -27 47 l-34 39 0 -34 c0 -57 -4 -70 -28 -94 -12 -13 -23 -21 -23 -18 0
3 -7 -2 -16 -10 -8 -9 -20 -14 -24 -11 -15 9 1 36 29 47 24 9 24 11 7 17 -19
7 -19 8 2 13 21 6 33 48 13 48 -5 0 -17 12 -26 27 -15 22 -15 25 -2 20 8 -3
23 1 34 8 17 13 17 14 -4 8 -15 -3 -23 -1 -23 7 0 9 -11 11 -35 7 -23 -4 -35
-2 -35 6 -1 7 -15 -5 -34 -26 -27 -32 -34 -36 -44 -24 -10 11 -6 22 18 52 16
21 30 45 30 53 0 22 30 52 52 52 10 0 21 7 24 15 8 19 6 19 49 -6z m455 -19
c19 -19 19 -20 2 -20 -10 0 -24 6 -31 13 -10 10 -11 8 -5 -6 5 -14 16 -18 47
-15 52 3 59 -15 15 -42 -41 -25 -77 -28 -58 -5 10 12 9 15 -6 17 -11 0 1 4 26
8 37 6 39 7 14 8 -36 2 -57 22 -48 46 8 21 20 20 44 -4z m643 2 c52 -20 67
-35 67 -68 0 -11 9 -29 20 -39 23 -21 25 -37 8 -64 -11 -18 -13 -18 -37 -3
-26 16 -26 16 -8 -4 22 -26 22 -41 1 -23 -15 12 -16 11 -10 -9 5 -13 3 -22 -3
-22 -10 0 -15 14 -12 34 1 4 -5 19 -14 32 -22 34 -50 31 -66 -8 -7 -18 -17
-36 -22 -39 -16 -11 1 -39 23 -39 25 0 48 -49 28 -61 -8 -5 -24 5 -45 26 -26
27 -33 42 -33 75 0 27 4 40 14 40 7 0 19 7 26 15 10 12 9 15 -8 15 -13 0 -22
9 -26 25 -10 38 1 48 43 41 32 -6 34 -5 18 8 -10 8 -26 12 -36 9 -29 -8 -35
26 -9 52 29 29 24 28 81 7z m-836 -63 c0 -42 0 -42 -17 -19 -16 21 -16 24 -1
41 9 9 17 18 17 18 1 1 1 -18 1 -40z m723 16 c0 -8 -9 -19 -20 -25 -11 -6 -20
-18 -20 -26 0 -13 3 -13 18 2 16 17 17 17 20 -5 4 -27 -24 -61 -49 -61 -22 0
-34 -17 -17 -23 7 -2 10 -8 6 -12 -15 -16 -39 5 -36 32 3 25 7 28 36 25 18 -2
32 1 32 7 0 6 -6 11 -14 11 -14 0 -26 21 -26 46 0 8 6 14 14 14 7 0 19 7 26
15 16 19 30 19 30 0z m-416 -55 c11 -11 -1 -29 -28 -40 l-21 -9 22 0 c14 -1
28 10 39 28 10 17 21 28 26 25 12 -8 10 -68 -4 -82 -14 -14 -42 -16 -33 -2 3
6 -1 10 -9 10 -9 0 -16 -4 -16 -10 0 -5 -7 -10 -15 -10 -8 0 -15 5 -15 10 0 6
-8 5 -20 -2 -31 -19 -56 1 -52 43 4 45 10 49 34 16 11 -15 25 -27 31 -27 7 0
4 5 -5 11 -21 12 -24 45 -5 53 15 6 59 -2 71 -14z m311 -20 c0 -8 -13 -19 -30
-25 -16 -5 -33 -14 -37 -20 -5 -6 -12 -5 -18 5 -8 11 -4 21 16 38 28 25 69 26
69 2z m-975 6 c0 -3 -4 -8 -10 -11 -5 -3 -10 -1 -10 4 0 6 5 11 10 11 6 0 10
-2 10 -4z m354 -12 c3 -9 6 -23 6 -32 0 -13 -3 -12 -15 4 -16 21 -19 44 -6 44
5 0 12 -7 15 -16z m-324 3 c0 -2 -11 -18 -25 -37 -29 -40 -62 -52 -43 -17 10
20 10 21 -6 8 -14 -12 -16 -12 -11 1 7 18 85 59 85 45z m43 -56 c22 -37 21
-38 -5 -44 -12 -4 -19 -9 -15 -13 8 -8 -11 -34 -25 -34 -6 0 -4 7 3 17 13 15
12 15 -7 5 -16 -9 -22 -7 -32 8 -9 15 -9 22 1 32 6 7 12 19 12 27 0 8 7 16 15
18 13 4 13 3 0 -6 -12 -8 -12 -11 -1 -11 11 0 11 -3 1 -15 -19 -23 1 -40 29
-26 24 14 28 36 6 45 -8 3 -15 10 -15 16 0 19 16 10 33 -19z m362 19 c9 15 25
12 25 -6 0 -8 5 -12 10 -9 6 3 10 1 10 -5 0 -6 5 -8 10 -5 20 12 10 -14 -16
-42 -21 -22 -27 -25 -34 -13 -6 8 -10 20 -10 26 0 6 -9 19 -20 29 -26 23 -26
39 -1 25 13 -7 22 -7 26 0z m529 -16 c8 -20 -1 -34 -20 -34 -8 0 -14 -7 -14
-16 0 -20 -24 -13 -28 9 -3 16 30 57 47 57 5 0 12 -7 15 -16z m191 -14 c-19
-36 -19 -46 -2 -31 11 8 17 5 27 -14 7 -13 17 -22 23 -18 5 3 4 9 -4 14 -7 4
-10 11 -7 15 4 3 14 0 22 -9 13 -13 13 -17 -4 -32 -18 -16 -19 -16 -32 4 -7
12 -20 21 -29 21 -27 0 -28 10 -7 46 25 42 34 45 13 4z m-75 2 c0 -20 -24 -45
-54 -56 -11 -4 -16 -12 -12 -21 3 -8 1 -15 -3 -15 -19 0 -18 29 1 47 11 10 24
28 29 41 10 27 39 30 39 4z m124 -14 c-6 -9 -34 1 -34 14 0 5 5 6 10 3 6 -3
10 0 10 7 0 10 3 9 9 -2 6 -8 8 -17 5 -22z m-1144 8 c0 -2 -7 -7 -16 -10 -8
-3 -12 -2 -9 4 6 10 25 14 25 6z m460 -37 c0 -4 8 -6 18 -4 9 1 23 -2 29 -7 7
-6 20 -7 29 -4 12 5 15 2 10 -11 -4 -9 -1 -20 6 -24 9 -6 8 -10 -5 -15 -25 -9
-47 3 -47 26 0 12 -4 18 -10 15 -5 -3 -10 -15 -10 -26 0 -26 -22 -20 -35 9 -5
12 -13 22 -17 22 -5 0 -8 6 -8 14 0 9 9 14 20 13 11 -1 20 -4 20 -8z m465 1
c3 -5 -5 -16 -19 -25 -14 -9 -27 -24 -29 -33 -4 -16 -4 -16 -11 0 -15 32 41
88 59 58z m-565 -65 c-7 -8 -16 -15 -21 -15 -13 0 -11 24 3 38 18 18 35 -3 18
-23z m646 20 c-3 -8 -9 -22 -12 -31 -5 -10 0 -17 15 -21 11 -3 21 -11 21 -18
0 -8 3 -22 7 -32 6 -16 5 -16 -10 -4 -10 8 -16 19 -14 25 2 6 -6 16 -17 21
-17 9 -26 7 -48 -14 -16 -14 -28 -32 -28 -38 0 -20 -20 -15 -20 5 -1 9 -7 28
-15 42 -12 22 -11 27 2 43 9 9 22 17 30 17 18 0 17 -26 -2 -34 -31 -11 -15
-24 18 -14 23 7 37 20 44 39 6 16 17 29 23 29 7 0 9 -7 6 -15z m-902 -29 c-3
-7 2 -19 11 -26 22 -18 19 -51 -5 -57 -19 -5 -19 -6 -4 -18 23 -17 11 -49 -16
-42 -23 6 -27 -8 -5 -17 19 -7 19 -21 0 -40 -13 -13 -20 -40 -24 -98 -2 -18
-19 -6 -24 15 -2 12 -8 31 -12 42 -6 19 -6 19 8 2 11 -13 16 -15 20 -5 2 7 -5
23 -16 36 -16 17 -18 25 -9 34 9 9 13 7 18 -5 3 -9 10 -17 15 -17 16 0 10 26
-12 54 -25 32 -16 55 12 30 28 -25 35 -10 10 22 -21 26 -19 56 2 35 6 -6 18
-11 26 -11 11 0 9 6 -7 23 -21 23 -29 57 -15 70 10 10 32 -13 27 -27z m666 2
c0 -5 -4 -8 -10 -8 -5 0 -10 10 -10 23 0 18 2 19 10 7 5 -8 10 -18 10 -22z
m-505 -75 c-8 -22 -15 -61 -17 -88 -4 -68 -51 -121 -74 -83 -5 8 -2 9 9 5 21
-8 32 10 18 27 -6 7 -8 16 -4 19 3 4 12 -1 19 -11 11 -15 12 -12 10 19 -2 20
-6 41 -10 47 -3 6 1 15 10 20 14 8 14 12 3 30 -7 12 -10 25 -6 29 5 4 12 1 18
-7 6 -10 7 -5 3 17 -4 18 -3 40 0 50 6 14 9 13 20 -9 12 -22 12 -33 1 -65z
m129 40 c-38 -28 -49 -3 -11 27 20 17 22 17 26 2 2 -8 -5 -22 -15 -29z m326
21 c0 -8 -6 -14 -14 -14 -12 0 -14 10 -7 38 3 10 21 -11 21 -24z m-400 -3 c0
-6 -4 -13 -10 -16 -5 -3 -10 1 -10 9 0 9 5 16 10 16 6 0 10 -4 10 -9z m165 0
c5 -9 -47 -71 -60 -71 -13 0 -3 36 17 57 23 25 34 28 43 14z m60 -11 c9 -14
-12 -48 -35 -55 -11 -3 -20 -13 -20 -21 0 -8 -4 -14 -10 -14 -16 0 -11 33 10
68 19 32 43 41 55 22z m78 -23 c36 -48 31 -149 -7 -131 -6 3 -1 -3 12 -12 28
-21 28 -41 1 -49 -19 -6 -19 -8 -3 -19 12 -9 15 -19 10 -32 -8 -18 -9 -18 -17
4 -5 12 -19 26 -31 31 -13 5 -30 20 -37 35 l-14 26 -21 -40 c-24 -48 -36 -51
-36 -10 0 17 5 30 10 30 6 0 14 11 19 23 11 28 38 31 46 6 6 -19 54 -54 62
-45 11 11 -7 35 -29 38 -15 2 -24 11 -26 26 -4 25 1 27 30 11 16 -9 19 -8 16
3 -3 7 -15 18 -28 25 -19 9 -28 8 -52 -10 -15 -11 -28 -29 -28 -40 0 -10 -5
-17 -12 -15 -22 8 -21 39 1 59 12 11 21 24 21 29 0 6 9 10 20 10 10 0 24 8 30
18 9 15 13 14 40 -18 23 -26 30 -30 30 -16 0 10 -13 31 -30 46 -16 15 -30 33
-30 39 0 22 28 10 53 -22z m67 3 c28 -23 32 -31 23 -41 -10 -10 -9 -16 3 -30
16 -18 13 -49 -5 -49 -5 0 -11 9 -14 20 -3 11 -10 20 -16 20 -15 0 5 -40 27
-56 10 -7 13 -18 8 -30 -7 -18 -8 -17 -26 6 -10 14 -21 22 -24 19 -3 -3 7 -19
24 -35 32 -32 38 -59 15 -68 -9 -3 -15 0 -15 8 0 7 -7 19 -15 26 -9 7 -14 19
-11 26 3 7 1 16 -4 19 -6 4 -8 16 -5 28 2 12 7 38 9 57 3 19 10 36 15 38 18 6
12 18 -14 30 -14 6 -25 18 -25 27 0 21 10 18 50 -15z m94 11 c17 -19 7 -39
-13 -27 -5 3 -11 -1 -15 -9 -3 -8 -10 -15 -15 -15 -6 0 -8 7 -5 15 4 8 1 15
-5 15 -6 0 -11 5 -11 11 0 6 9 9 19 6 14 -3 18 -1 14 9 -8 20 11 17 31 -5z
m-444 -20 c0 -13 -23 -28 -42 -28 -10 0 -18 7 -18 15 0 8 6 12 15 9 8 -4 17
-2 20 3 8 12 25 13 25 1z m526 -46 c-9 -13 -16 -34 -16 -47 0 -17 -3 -19 -12
-10 -10 10 -10 17 0 32 6 11 12 26 12 33 0 7 6 19 12 25 20 20 22 -5 4 -33z
m124 38 c0 -4 -10 -17 -22 -30 -16 -17 -19 -26 -11 -34 8 -8 14 -5 22 10 12
21 35 28 44 13 9 -14 -41 -62 -58 -56 -26 10 -45 56 -32 75 16 21 57 37 57 22z
m-590 -16 c0 -19 -47 -61 -54 -49 -6 11 30 62 45 62 5 0 9 -6 9 -13z m405 -21
c0 -11 -6 -21 -14 -24 -8 -3 -11 0 -7 6 3 6 2 13 -4 17 -17 10 -11 27 8 23 9
-2 17 -12 17 -22z m-362 -28 c-6 -7 -13 -22 -15 -33 -4 -19 -5 -19 -17 3 -11
20 -10 27 5 43 20 22 45 10 27 -13z m323 17 c4 -8 3 -23 -1 -32 -6 -15 -8 -16
-13 -3 -3 8 -9 18 -15 21 -11 8 -1 29 14 29 5 0 12 -7 15 -15z m-476 -5 c0 -5
-5 -10 -11 -10 -5 0 -7 5 -4 10 3 6 8 10 11 10 2 0 4 -4 4 -10z m605 -7 c-15
-38 -17 -53 -5 -53 6 0 14 9 17 20 6 22 23 28 23 8 0 -7 -6 -32 -13 -56 -13
-42 -27 -47 -27 -9 0 11 -7 29 -17 39 -13 15 -14 23 -5 43 13 28 38 35 27 8z
m-565 -7 c0 -7 -7 -19 -15 -26 -12 -10 -15 -9 -15 7 0 11 3 23 7 26 11 12 23
8 23 -7z m720 -15 c0 -10 -7 -24 -15 -31 -8 -7 -15 -17 -15 -23 0 -6 11 0 25
13 28 27 34 10 8 -24 -16 -20 -19 -21 -35 -7 -22 19 -23 35 -2 66 19 30 34 32
34 6z m-234 -2 c3 -6 1 -16 -5 -22 -9 -9 -14 -8 -21 3 -9 15 -4 30 10 30 5 0
12 -5 16 -11z m-534 -31 c-9 -9 -12 -7 -12 12 0 19 3 21 12 12 9 -9 9 -15 0
-24z m104 -7 c-9 -10 -16 -23 -16 -29 0 -7 -4 -12 -10 -12 -17 0 -11 42 7 56
24 17 38 6 19 -15z m388 3 c10 -25 -3 -35 -24 -17 -10 9 -17 20 -14 25 9 14
31 9 38 -8z m-322 -32 c-7 -9 -15 -25 -18 -34 -8 -22 -20 -23 -28 -2 -6 17 -2
29 22 57 21 24 43 5 24 -21z m404 22 c-3 -9 -1 -12 4 -9 6 3 15 -6 20 -21 8
-21 7 -32 -7 -53 -10 -14 -16 -30 -15 -34 1 -5 -2 -6 -7 -3 -5 3 -12 -12 -16
-34 -4 -22 -11 -40 -16 -40 -5 0 -9 -5 -9 -11 0 -5 5 -7 10 -4 6 3 10 -1 10
-9 0 -14 -3 -14 -20 -4 -24 15 -25 31 -5 48 9 7 14 19 11 26 -3 7 2 18 10 24
8 7 14 22 14 34 0 12 6 28 13 35 8 10 8 12 0 7 -13 -7 -18 -1 -26 34 -5 21 -2
26 14 27 15 1 19 -3 15 -13z m114 1 c0 -8 -9 -31 -19 -51 -17 -31 -20 -33 -26
-15 -3 11 1 34 10 51 16 32 35 40 35 15z m-640 -3 c0 -5 -7 -17 -15 -28 -14
-19 -14 -19 -15 2 0 11 3 24 7 27 9 10 23 9 23 -1z m-50 -18 c0 -8 -5 -12 -10
-9 -6 4 -8 11 -5 16 9 14 15 11 15 -7z m538 -26 c2 -22 -3 -39 -12 -48 -10 -7
-16 -8 -16 -2 0 6 -3 19 -6 29 -5 16 -4 16 10 -1 16 -19 16 -19 16 6 0 15 -4
30 -10 33 -14 9 -12 27 3 23 6 -3 13 -20 15 -40z m-51 -41 c-1 -5 -11 2 -20
17 -10 15 -15 31 -11 37 7 12 36 -39 31 -54z m222 -3 c-12 -27 -13 -27 -16 -7
-5 26 19 77 24 52 2 -8 -2 -29 -8 -45z m-649 30 c0 -15 -22 -44 -31 -39 -11 7
7 45 21 45 6 0 10 -3 10 -6z m50 0 c0 -3 -5 -14 -10 -25 -7 -13 -7 -19 0 -19
15 0 12 -36 -5 -50 -12 -10 -15 -10 -15 2 0 8 5 19 12 26 9 9 9 12 0 12 -13 0
-17 42 -5 53 8 8 23 9 23 1z m-285 -25 c-4 -5 -2 -9 4 -9 6 0 16 -10 22 -22 9
-17 9 -24 -5 -33 -9 -7 -16 -17 -16 -23 0 -6 -6 -14 -12 -18 -7 -4 -10 -3 -5
1 4 5 -3 19 -15 32 l-22 23 32 -6 c37 -8 39 -2 12 33 -19 24 -19 49 1 37 5 -3
7 -10 4 -15z m145 6 c0 -8 -5 -15 -12 -15 -6 0 -4 -7 5 -18 18 -20 22 -42 8
-42 -5 0 -11 9 -14 21 -3 12 -10 18 -16 14 -6 -3 -11 0 -11 8 0 8 -8 18 -17
23 -15 6 -13 8 12 14 45 11 45 11 45 -5z m30 -1 c0 -8 -5 -12 -10 -9 -6 4 -8
11 -5 16 9 14 15 11 15 -7z m180 -14 c0 -19 -36 -47 -47 -37 -8 8 30 67 39 61
4 -3 8 -14 8 -24z m241 -53 c-8 -8 -11 -6 -11 5 0 8 -10 22 -22 30 -15 10 -19
20 -15 32 6 16 11 13 33 -19 18 -27 22 -41 15 -48z m339 59 c0 -8 -7 -19 -15
-26 -12 -10 -13 -16 -4 -26 9 -11 8 -14 -5 -14 -19 0 -21 26 -4 62 13 26 28
28 28 4z m-495 4 c6 -10 -34 -68 -47 -69 -15 -1 -8 40 7 45 8 4 15 12 15 20 0
16 16 19 25 4z m40 -6 c24 -16 34 -44 17 -44 -9 0 -33 25 -46 48 -10 16 0 15
29 -4z m319 -25 c-15 -16 -19 -39 -7 -39 3 0 15 8 26 18 20 16 20 16 12 -8 -4
-14 -7 -35 -7 -48 0 -18 -3 -20 -14 -11 -8 6 -14 17 -14 24 0 7 -6 15 -14 18
-16 6 -40 -45 -28 -59 4 -4 1 -4 -5 0 -18 10 -16 41 2 56 8 7 15 22 15 33 0
28 31 62 41 45 5 -7 2 -20 -7 -29z m-145 -2 c6 -8 8 -17 4 -20 -7 -8 -33 11
-33 24 0 13 16 11 29 -4z m-409 -11 c0 -16 -18 -31 -27 -22 -8 8 5 36 17 36 5
0 10 -6 10 -14z m450 -12 c0 -8 -4 -14 -10 -14 -5 0 -10 9 -10 21 0 11 5 17
10 14 6 -3 10 -13 10 -21z m-605 -4 c17 -18 16 -21 -6 -56 -20 -33 -23 -35
-30 -18 -13 33 -11 48 5 35 22 -19 29 5 10 34 -19 30 -5 34 21 5z m109 -6 c4
-10 1 -14 -6 -12 -15 5 -23 28 -10 28 5 0 13 -7 16 -16z m156 1 c0 -9 -7 -18
-15 -21 -8 -4 -15 -15 -15 -27 0 -19 1 -19 19 -3 11 10 22 13 25 8 3 -5 -1
-15 -9 -22 -8 -7 -15 -22 -15 -33 0 -27 -11 -15 -26 30 -11 31 -10 39 4 59 20
27 32 30 32 9z m128 -1 c12 -8 22 -20 22 -26 0 -6 7 -16 17 -23 9 -7 14 -19
10 -29 -10 -25 -27 -19 -27 9 0 14 -5 25 -10 25 -6 0 -15 11 -20 25 -12 32
-37 23 -55 -19 -12 -27 -14 -28 -21 -12 -4 10 -3 21 3 25 5 3 12 14 16 24 8
21 35 22 65 1z m52 -12 c0 -15 -2 -15 -10 -2 -13 20 -13 33 0 25 6 -3 10 -14
10 -23z m44 -11 c9 -33 -2 -52 -29 -50 -5 0 -5 3 1 5 7 3 9 18 4 45 -9 49 10
49 24 0z m62 5 c3 -8 1 -23 -5 -33 -9 -16 -10 -16 -11 -1 0 9 -3 23 -6 32 -3
9 -1 16 5 16 7 0 14 -6 17 -14z m229 -12 c-9 -14 -14 -32 -11 -40 3 -8 1 -14
-5 -14 -19 0 -21 29 -2 54 24 33 40 33 18 0z m-730 6 c7 -11 -12 -50 -24 -50
-4 0 -6 14 -3 30 4 30 16 39 27 20z m105 -7 c0 -5 -5 -15 -10 -23 -8 -12 -10
-11 -10 8 0 12 5 22 10 22 6 0 10 -3 10 -7z m37 -18 c-7 -13 -14 -20 -15 -14
-5 14 6 39 17 39 5 0 4 -11 -2 -25z m384 -8 c-8 -8 -11 -7 -11 4 0 20 13 34
18 19 3 -7 -1 -17 -7 -23z m-491 4 c0 -11 5 -23 10 -26 6 -3 11 -34 11 -68 l2
-62 6 47 c7 48 20 73 28 51 3 -9 9 -10 23 -1 22 14 67 -11 79 -43 7 -19 8 -19
19 6 12 26 13 27 32 10 11 -10 17 -22 13 -28 -3 -5 -5 -36 -4 -68 2 -62 -16
-149 -30 -149 -5 0 -9 26 -10 58 0 31 -4 77 -8 102 l-8 45 -3 -50 c-3 -82 1
-128 16 -164 17 -40 18 -52 3 -31 -9 12 -10 12 -5 -3 3 -10 6 -33 7 -50 1 -30
1 -30 8 -7 7 24 7 24 14 -9 12 -58 8 -89 -14 -110 l-21 -20 21 6 c17 4 21 1
21 -16 0 -13 -4 -19 -10 -16 -6 4 -7 12 -3 18 4 7 0 6 -10 -2 -9 -7 -17 -19
-17 -26 0 -7 -7 -18 -15 -25 -12 -10 -15 -10 -15 1 0 11 -2 11 -10 -1 -5 -8
-12 -11 -15 -8 -11 11 6 30 21 24 20 -8 27 11 19 50 -5 30 -9 33 -21 23 -12
-10 -12 -13 3 -24 20 -15 13 -27 -17 -32 -14 -2 -20 3 -20 15 0 13 2 14 9 4 5
-8 7 4 7 30 -1 28 3 42 11 41 16 -3 21 17 12 47 l-7 25 -1 -26 c-1 -15 -7 -32
-15 -38 -8 -6 -17 -32 -21 -56 -3 -25 -10 -45 -16 -45 -12 0 -12 17 1 41 8 15
7 19 -5 19 -22 0 -18 27 5 33 11 3 20 11 20 17 0 10 -3 10 -15 0 -12 -10 -15
-10 -15 4 0 9 5 16 11 16 11 0 7 193 -7 303 -7 59 -24 62 -25 5 -1 -37 -2 -39
-9 -18 -5 15 -6 -7 -3 -51 5 -61 2 -81 -12 -102 -9 -15 -15 -36 -12 -46 2 -11
1 -35 -3 -53 -7 -30 -8 -31 -9 -6 -2 42 -19 43 -26 1 -3 -21 -17 -59 -30 -85
-18 -35 -21 -46 -10 -42 8 4 15 4 15 1 0 -5 -86 -47 -96 -47 -2 0 -4 8 -4 18
0 14 -2 15 -10 2 -8 -13 -10 -12 -10 3 0 9 5 17 10 17 6 0 10 8 8 18 -2 13 5
18 29 20 34 3 59 32 49 55 -2 7 -5 5 -5 -4 -1 -11 -10 -16 -25 -16 -23 0 -24
2 -20 61 1 33 10 81 18 105 18 50 22 191 5 191 -5 0 -9 -12 -8 -27 1 -16 1
-41 0 -58 -2 -27 -3 -28 -11 -9 -8 21 -13 82 -11 139 l2 30 14 -25 c14 -25 14
-25 15 -2 0 12 4 22 9 22 14 0 71 63 71 78 0 6 5 12 10 12 6 0 10 -9 10 -19z
m27 -3 c-3 -8 -6 -5 -6 6 -1 11 2 17 5 13 3 -3 4 -12 1 -19z m229 -27 c-9 -10
-16 -23 -16 -29 0 -15 -17 -16 -26 -1 -3 6 6 23 22 38 31 28 47 22 20 -8z
m184 29 c0 -5 -4 -10 -10 -10 -5 0 -10 5 -10 10 0 6 5 10 10 10 6 0 10 -4 10
-10z m-132 -12 c16 -16 16 -51 0 -46 -13 5 -31 58 -19 58 4 0 12 -5 19 -12z
m304 -10 c-19 -19 -14 -29 14 -26 23 3 27 -1 28 -25 1 -15 -3 -26 -9 -24 -5 2
-9 12 -9 21 1 10 -6 16 -17 16 -11 0 -22 7 -25 15 -6 16 15 50 24 40 3 -3 0
-11 -6 -17z m-696 -25 c-10 -10 -19 5 -10 18 6 11 8 11 12 0 2 -7 1 -15 -2
-18z m544 -56 c0 -33 -9 -94 -21 -134 -19 -69 -19 -77 -5 -127 9 -30 16 -74
16 -99 0 -28 6 -49 16 -58 8 -7 13 -21 11 -31 -3 -11 -1 -15 5 -12 6 4 14 0
19 -7 13 -21 12 7 -1 32 -8 13 -7 19 1 19 6 0 13 -9 16 -20 3 -11 9 -20 13
-20 5 0 6 -9 3 -19 -5 -20 -18 -22 -42 -7 -10 7 -12 6 -6 -4 5 -8 3 -11 -6 -8
-7 2 -17 19 -21 36 -5 18 -17 38 -28 45 -11 6 -20 23 -21 37 -1 61 -16 62 -17
1 -1 -48 2 -61 11 -52 16 16 30 14 24 -3 -3 -8 1 -17 9 -20 8 -3 14 -16 14
-28 -1 -23 -1 -23 -17 -3 -13 16 -15 17 -10 3 4 -10 2 -18 -3 -18 -6 0 -10 6
-10 14 0 8 -5 18 -12 22 -7 4 -8 3 -4 -4 4 -7 4 -17 0 -24 -5 -8 -10 -6 -15 8
-7 17 -8 17 -8 2 -1 -10 -5 -18 -11 -18 -7 0 -7 32 0 80 0 3 5 -2 11 -10 9
-12 10 -12 5 3 -3 10 -7 44 -7 75 l-2 57 -7 -56 c-4 -30 -12 -64 -19 -75 -11
-17 -12 -17 -6 6 4 14 7 36 7 50 1 14 7 63 14 110 8 47 13 105 13 130 -1 25
-3 34 -6 20 -13 -89 -15 -94 -23 -79 -5 8 -13 49 -19 90 -5 41 -12 83 -16 94
-4 12 -4 15 2 8 5 -8 14 -9 23 -3 12 7 18 1 27 -28 l12 -37 -2 44 c-1 36 2 45
19 51 11 4 25 15 33 23 25 31 41 9 41 -56z m114 52 c-3 -5 -10 -7 -15 -3 -5 3
-7 10 -3 15 3 5 10 7 15 3 5 -3 7 -10 3 -15z m-296 -32 c-7 -14 -13 -17 -16
-9 -6 19 6 44 18 37 7 -4 6 -14 -2 -28z m209 -89 c-6 -98 -22 -176 -35 -163
-6 6 -4 73 4 109 3 12 7 46 10 76 6 63 11 80 20 80 4 0 4 -46 1 -102z m-177
-40 c0 -40 7 -100 14 -133 14 -57 10 -116 -9 -167 -4 -9 -2 -25 4 -36 18 -35
4 -52 -44 -52 -36 0 -44 3 -48 23 -5 25 -11 119 -9 157 1 14 4 82 8 153 l7
127 38 0 39 0 0 -72z m-236 -220 c5 -12 0 -25 -18 -43 -30 -30 -52 -34 -37 -7
12 23 20 59 29 137 l7 60 6 -65 c3 -36 9 -73 13 -82z m427 1 c4 -35 6 -65 5
-65 0 -1 -10 -4 -21 -8 -19 -5 -20 -2 -18 47 1 28 2 63 3 75 0 14 5 22 13 20
7 -3 15 -31 18 -69z m38 -37 c1 -7 -3 -10 -9 -7 -5 3 -10 18 -9 33 0 24 1 25
9 7 5 -11 9 -26 9 -33z m-524 -64 c-3 -7 -14 -19 -25 -26 -17 -11 -20 -10 -20
8 0 11 7 20 16 20 11 0 14 6 8 22 -6 20 -5 21 10 6 9 -9 14 -23 11 -30z m32
10 c-4 -14 0 -27 11 -35 9 -8 11 -11 3 -7 -11 5 -13 3 -8 -9 9 -23 -13 -34
-28 -14 -13 18 -31 24 -20 8 3 -5 1 -12 -5 -16 -5 -3 -10 3 -10 13 0 11 7 22
15 26 8 3 20 17 25 31 12 31 25 33 17 3z m-259 -20 c-6 -18 -12 -45 -15 -60
-3 -17 -12 -28 -21 -28 -12 0 -13 3 -4 12 15 15 16 32 2 23 -18 -11 -6 19 13
33 9 7 17 22 17 33 0 10 4 19 9 19 6 0 5 -13 -1 -32z m49 2 c-2 -10 -8 -24
-14 -32 -18 -23 -23 -57 -7 -51 10 4 12 0 8 -11 -4 -10 -12 -15 -19 -12 -7 2
-18 -1 -24 -7 -8 -8 -11 -7 -11 5 0 8 7 21 15 28 17 14 21 35 5 25 -5 -3 -10
-1 -10 4 0 6 7 11 16 11 11 0 14 6 9 20 -7 22 11 53 26 44 5 -3 7 -13 6 -24z
m713 9 c0 -11 -4 -17 -10 -14 -5 3 -10 13 -10 21 0 8 5 14 10 14 6 0 10 -9 10
-21z m176 -27 c6 -15 7 -37 3 -47 -7 -19 -8 -19 -8 2 -1 12 -5 25 -11 28 -5 3
-15 15 -20 26 -9 15 -7 19 7 19 11 0 23 -11 29 -28z m-146 -34 c0 -5 -4 -8
-10 -8 -5 0 -10 10 -10 23 0 18 2 19 10 7 5 -8 10 -18 10 -22z m-522 -37 c-15
-24 -28 -27 -28 -6 0 13 31 38 38 30 2 -2 -3 -12 -10 -24z m-128 14 c0 -2 -3
-10 -6 -19 -8 -21 -24 -20 -24 2 -1 15 -2 15 -15 -2 -8 -11 -18 -17 -21 -13
-12 12 16 35 41 35 14 0 25 -2 25 -3z m40 -15 c-11 -20 -30 -28 -30 -12 0 11
22 32 32 32 5 0 4 -9 -2 -20z m50 16 c0 -16 -14 -36 -26 -36 -14 0 -19 22 -7
33 7 8 33 10 33 3z m73 -16 c-3 -11 -9 -20 -14 -20 -10 0 -12 24 -2 33 13 13
21 7 16 -13z m337 5 c7 -9 10 -19 6 -22 -4 -4 -11 -2 -15 6 -5 7 -11 12 -15
12 -23 -3 -30 0 -16 9 20 13 25 12 40 -5z m38 3 c14 -14 16 -28 2 -28 -5 0
-14 9 -20 20 -12 22 -1 27 18 8z m104 -2 c43 2 58 -1 63 -13 9 -24 -4 -29 -20
-7 -14 19 -14 19 -15 0 0 -18 -1 -18 -19 -2 -15 13 -20 14 -23 4 -4 -11 -8
-10 -21 1 -11 9 -17 10 -17 2 0 -18 -19 -12 -30 10 -10 18 -9 19 7 12 10 -5
44 -8 75 -7z m-718 -11 c-6 -16 -24 -21 -24 -7 0 11 11 22 21 22 5 0 6 -7 3
-15z m516 -8 c29 -15 57 -41 78 -73 32 -45 34 -54 30 -115 -3 -53 -9 -73 -31
-102 -45 -59 -84 -81 -152 -85 -77 -4 -137 24 -180 86 -26 38 -30 53 -30 110
0 58 4 73 30 109 36 52 112 93 169 93 23 0 61 -11 86 -23z m305 -15 c-6 -7
-35 18 -35 31 0 5 9 2 20 -8 11 -10 18 -20 15 -23z m33 10 c6 -18 -15 -14 -22
4 -4 10 -1 14 6 12 6 -2 14 -10 16 -16z m48 5 c8 3 14 1 14 -4 0 -16 -38 -12
-45 5 -5 13 -3 14 6 5 6 -6 18 -9 25 -6z m44 -18 c0 -6 -4 -7 -10 -4 -5 3 -10
11 -10 16 0 6 5 7 10 4 6 -3 10 -11 10 -16z m-970 -16 c0 -13 2 -15 8 -5 6 9
12 5 20 -13 7 -15 10 -30 7 -35 -3 -5 -1 -11 5 -15 6 -4 8 -9 6 -13 -2 -4 2
-13 10 -20 12 -11 14 -9 14 8 0 11 -6 23 -12 25 -17 7 -21 67 -5 77 16 10 187
10 187 0 0 -5 -11 -19 -25 -32 -14 -13 -25 -29 -25 -37 0 -7 -5 -13 -10 -13
-7 0 -7 -6 0 -19 17 -34 12 -44 -17 -37 -50 13 -87 14 -103 5 -10 -6 -3 -9 25
-9 22 0 57 -3 79 -7 l39 -6 -5 34 c-3 18 0 43 6 54 17 31 38 55 49 55 5 0 4
-6 -2 -14 -6 -8 -11 -18 -10 -22 1 -5 -1 -16 -4 -24 -3 -8 -8 -31 -9 -50 -3
-30 -8 -36 -35 -44 -28 -9 -32 -13 -26 -35 7 -30 31 -61 47 -61 12 0 36 -45
36 -67 0 -7 -4 -13 -10 -13 -5 0 -10 6 -10 14 0 8 -9 24 -21 37 l-20 24 15
-26 c14 -23 14 -27 0 -45 -15 -18 -15 -18 -10 7 4 17 0 31 -9 39 -8 7 -12 16
-10 21 7 10 -72 34 -103 31 -12 -2 -32 7 -45 18 l-22 21 -3 -22 c-2 -13 -15
-26 -33 -32 -30 -12 -41 -51 -16 -60 6 -2 9 -8 5 -12 -12 -12 -38 15 -38 40 0
12 9 29 21 36 17 12 19 18 10 41 -7 19 -7 28 2 31 12 4 17 97 5 97 -5 0 -8 -7
-8 -16 0 -8 -5 -12 -11 -8 -13 8 -4 81 13 101 16 19 48 16 48 -4z m685 -1 c-2
-10 1 -25 6 -33 9 -14 10 -12 13 23 0 10 4 18 9 18 32 0 37 -1 32 -10 -4 -6
-12 -7 -18 -4 -7 4 -7 1 1 -7 11 -12 15 -11 28 5 10 15 14 16 15 5 1 -8 3 -29
5 -47 3 -26 0 -34 -18 -41 -12 -4 -17 -10 -11 -14 6 -4 22 2 36 13 14 11 30
20 35 20 18 0 24 -20 12 -35 -20 -24 -6 -42 29 -37 17 2 38 -1 46 -8 21 -17
19 -67 -5 -100 -11 -15 -24 -40 -30 -55 -8 -20 -15 -26 -30 -22 -11 3 -23 1
-26 -5 -4 -6 -10 -5 -15 3 -8 12 -10 12 -18 0 -14 -22 -33 -4 -20 20 5 11 7
29 3 41 -6 20 -7 20 -16 3 -8 -12 -7 -20 3 -26 13 -8 12 -10 -9 -13 -5 0 -16
-9 -26 -18 -21 -21 -28 -22 -45 -5 -11 10 -13 10 -7 0 5 -10 -7 -13 -51 -12
-32 0 -52 3 -44 6 8 3 26 19 39 34 13 16 29 26 34 22 7 -3 8 -1 4 5 -4 6 0 25
9 41 8 17 15 43 15 60 0 16 4 32 8 35 5 3 8 -7 7 -22 -1 -26 19 -77 34 -86 4
-3 13 -1 21 5 12 7 12 9 1 9 -7 0 -11 6 -8 14 4 11 1 13 -10 9 -11 -4 -14 -2
-9 5 4 7 4 18 -1 25 -12 19 -12 37 -1 37 6 0 0 9 -13 20 -21 17 -22 19 -6 20
10 0 15 -4 12 -10 -3 -5 2 -10 12 -10 16 1 16 3 -4 19 -12 10 -20 21 -17 24 3
3 -3 3 -14 0 -16 -4 -21 2 -26 31 -4 20 -11 36 -15 36 -5 0 -11 7 -15 15 -4
12 3 15 29 15 27 0 33 -3 30 -18z m185 -24 c19 -15 25 -29 25 -64 1 -39 -1
-44 -22 -44 -19 0 -23 6 -24 33 -1 17 -1 35 -1 38 1 4 -6 5 -16 3 -24 -6 -38
6 -46 39 -7 28 -6 29 26 22 18 -4 44 -16 58 -27z m78 -153 c-1 -139 -1 -140
-9 -50 -11 137 -10 223 1 205 5 -8 9 -78 8 -155z m33 0 c3 -3 4 32 2 77 -3 61
-1 79 7 66 24 -38 24 -248 0 -248 -5 0 -7 8 -3 18 4 12 3 14 -5 7 -5 -5 -12
-19 -15 -30 -3 -11 -5 45 -4 125 0 118 1 131 6 68 4 -43 9 -80 12 -83z m-1133
28 c-1 -54 -3 -81 -5 -60 -2 20 -8 35 -14 32 -5 -4 -9 -1 -9 4 0 18 5 26 13
24 4 -2 7 20 7 47 0 28 2 50 5 50 3 0 4 -44 3 -97z m391 -60 c8 -21 17 -40 20
-43 17 -13 52 -80 41 -80 -15 0 -40 -25 -40 -41 0 -8 -7 -5 -20 6 -19 17 -20
17 -20 0 0 -14 -3 -16 -11 -8 -14 14 -2 34 19 32 10 -1 22 -1 28 0 14 1 26 41
13 41 -5 0 -15 14 -24 30 -9 17 -22 30 -30 30 -14 0 -19 12 -16 33 0 4 -3 7
-9 7 -5 0 -10 7 -10 15 0 9 9 15 23 15 18 0 26 -9 36 -37z m-201 -35 c6 -6 25
-11 42 -10 17 0 47 -8 66 -20 39 -23 47 -56 12 -53 -30 3 -58 -12 -58 -31 0
-8 -5 -12 -10 -9 -6 4 -8 16 -5 28 2 12 2 16 -1 10 -8 -19 -24 -16 -17 3 5 14
2 13 -16 -2 -29 -26 -64 -27 -58 -3 3 12 0 16 -9 12 -8 -3 -14 1 -14 11 0 9
-4 16 -10 16 -20 0 -9 19 23 38 39 25 40 25 55 10z m885 -66 c-8 -34 -21 -26
-18 11 4 43 4 44 15 26 5 -8 6 -25 3 -37z m-36 -14 c-3 -7 -5 -2 -5 12 0 14 2
19 5 13 2 -7 2 -19 0 -25z m-937 -18 c0 -5 -4 -10 -10 -10 -5 0 -10 5 -10 10
0 6 5 10 10 10 6 0 10 -4 10 -10z m30 -6 c0 -8 -5 -12 -10 -9 -6 4 -8 11 -5
16 9 14 15 11 15 -7z m194 10 c9 -3 16 -14 16 -23 -1 -13 -3 -13 -17 4 -13 16
-15 17 -10 3 4 -12 1 -18 -8 -18 -15 0 -20 21 -8 33 8 8 8 8 27 1z m-109 -14
c3 -5 -1 -10 -9 -10 -9 0 -16 5 -16 10 0 6 4 10 9 10 6 0 13 -4 16 -10z m65
-6 c0 -8 -4 -12 -10 -9 -5 3 -10 10 -10 16 0 5 5 9 10 9 6 0 10 -7 10 -16z
m213 -4 c-3 -11 -12 -20 -20 -20 -10 0 -13 6 -9 18 5 15 4 15 -8 -2 -9 -10
-20 -15 -27 -10 -16 10 17 34 47 34 17 0 21 -4 17 -20z m223 -17 c-4 -4 -11
-1 -16 7 -16 25 -11 35 7 17 9 -9 13 -20 9 -24z m-200 0 c-10 -10 -19 5 -10
18 6 11 8 11 12 0 2 -7 1 -15 -2 -18z m34 12 c0 -8 -4 -15 -10 -15 -5 0 -10 7
-10 15 0 8 5 15 10 15 6 0 10 -7 10 -15z m137 -1 c2 -7 -7 -11 -22 -11 -14 0
-25 5 -25 12 0 15 42 14 47 -1z m61 -2 c6 -18 -15 -14 -22 4 -4 10 -1 14 6 12
6 -2 14 -10 16 -16z m70 0 c2 -6 -1 -12 -7 -12 -6 0 -11 5 -11 12 0 9 -3 9
-12 0 -16 -16 -25 -15 -32 3 -4 11 2 14 26 12 17 -1 33 -8 36 -15z m26 3 c3
-8 1 -15 -3 -15 -5 0 -11 7 -15 15 -3 8 -1 15 3 15 5 0 11 -7 15 -15z m66 -4
c0 -13 -2 -13 -9 -2 -6 9 -11 10 -15 2 -10 -15 -23 -14 -29 3 -4 11 2 14 24
14 20 -1 29 -6 29 -17z m30 4 c0 -8 -2 -15 -4 -15 -2 0 -6 7 -10 15 -3 8 -1
15 4 15 6 0 10 -7 10 -15z m30 0 c0 -8 -2 -15 -4 -15 -2 0 -6 7 -10 15 -3 8
-1 15 4 15 6 0 10 -7 10 -15z m-340 -6 c0 -5 -16 -9 -35 -9 -19 0 -35 4 -35 9
0 5 16 9 35 9 19 0 35 -4 35 -9z m-252 -26 c-16 -4 -16 -6 -3 -19 17 -18 20
-34 5 -34 -9 0 -30 40 -30 56 0 2 10 3 23 3 16 -1 18 -2 5 -6z m40 0 c0 -5 2
-16 7 -26 9 -20 1 -32 -14 -22 -14 8 -14 55 -1 55 6 0 9 -3 8 -7z m92 -5 c0
-5 -17 -7 -37 -4 -31 3 -34 2 -20 -9 19 -13 23 -35 7 -35 -9 0 -30 40 -30 56
0 2 18 3 40 2 22 -1 40 -5 40 -10z m170 4 c0 -5 -36 -9 -80 -9 -44 0 -80 4
-80 8 0 5 36 9 80 9 44 0 80 -4 80 -8z m30 -2 c0 -5 -4 -10 -10 -10 -5 0 -10
5 -10 10 0 6 5 10 10 10 6 0 10 -4 10 -10z m30 0 c0 -5 -4 -10 -10 -10 -5 0
-10 5 -10 10 0 6 5 10 10 10 6 0 10 -4 10 -10z m17 -3 c-3 -8 -1 -20 4 -28 6
-10 9 -10 9 -1 0 6 7 12 15 12 8 0 15 -7 15 -15 0 -10 -10 -15 -30 -15 -19 0
-30 5 -30 14 0 18 10 46 17 46 3 0 3 -6 0 -13z m33 3 c0 -5 -4 -10 -10 -10 -5
0 -10 5 -10 10 0 6 5 10 10 10 6 0 10 -4 10 -10z m90 -42 c0 -5 -6 -8 -14 -8
-10 0 -14 10 -14 31 1 31 1 31 14 8 7 -13 13 -27 14 -31z m-624 5 c-10 -10
-19 5 -10 18 6 11 8 11 12 0 2 -7 1 -15 -2 -18z m44 1 c0 -8 -4 -12 -10 -9 -5
3 -10 13 -10 21 0 8 5 12 10 9 6 -3 10 -13 10 -21z m44 10 c4 -9 4 -19 2 -21
-8 -8 -26 8 -26 23 0 19 16 18 24 -2z m631 7 c3 -5 1 -12 -5 -16 -5 -3 -10 1
-10 9 0 18 6 21 15 7z m-755 -11 c0 -5 -4 -10 -10 -10 -5 0 -10 5 -10 10 0 6
5 10 10 10 6 0 10 -4 10 -10z m330 -4 c0 -9 -12 -14 -35 -14 -33 0 -43 7 -28
21 13 13 63 7 63 -7z m140 0 c0 -10 -17 -13 -65 -12 -46 0 -65 4 -65 13 0 9
19 13 65 13 48 0 65 -4 65 -14z m40 -2 c0 -9 -5 -14 -12 -12 -18 6 -21 28 -4
28 9 0 16 -7 16 -16z m110 1 c0 -8 -7 -15 -15 -15 -8 0 -15 7 -15 15 0 8 7 15
15 15 8 0 15 -7 15 -15z m90 6 c0 -6 -4 -13 -10 -16 -5 -3 -10 1 -10 9 0 9 5
16 10 16 6 0 10 -4 10 -9z"/>
<path d="M1155 2359 c-11 -17 -2 -18 19 -3 17 12 17 14 4 14 -9 0 -20 -5 -23
-11z"/>
<path d="M1090 2345 c0 -8 4 -15 10 -15 5 0 7 7 4 15 -4 8 -8 15 -10 15 -2 0
-4 -7 -4 -15z"/>
<path d="M1190 2340 c-8 -5 -12 -10 -10 -12 3 -2 16 -9 30 -17 22 -12 23 -12
14 0 -6 8 -13 19 -15 26 -3 8 -9 9 -19 3z"/>
<path d="M1119 2243 c-13 -15 -12 -15 8 -3 18 12 24 12 40 -1 16 -13 17 -13 4
4 -17 21 -35 22 -52 0z"/>
<path d="M1214 1976 c-3 -8 -4 -23 -2 -33 3 -11 6 -6 9 15 6 34 2 42 -7 18z"/>
<path d="M1420 2142 c0 -6 -6 -9 -14 -6 -7 3 -16 -2 -19 -10 -4 -9 -15 -16
-26 -16 -11 0 -23 -5 -27 -11 -5 -9 1 -10 22 -5 16 3 35 8 43 9 16 4 35 36 27
44 -3 4 -6 1 -6 -5z"/>
<path d="M689 2127 c14 -18 61 -23 61 -7 0 6 -9 10 -19 10 -11 0 -28 3 -38 7
-16 6 -16 5 -4 -10z"/>
<path d="M1069 2108 c7 -10 23 -17 35 -17 20 1 20 2 1 6 -11 3 -27 10 -35 17
-13 10 -13 9 -1 -6z"/>
<path d="M413 2104 c-9 -25 10 -36 39 -21 25 13 25 14 7 25 -25 16 -38 15 -46
-4z"/>
<path d="M660 1963 c0 -15 36 -53 50 -53 6 0 10 7 10 15 0 8 -9 15 -20 15 -10
0 -24 8 -29 18 -6 9 -11 11 -11 5z"/>
<path d="M635 1900 c-4 -7 -2 -17 4 -23 8 -8 11 -7 11 2 0 9 4 10 13 4 19 -15
47 -23 47 -14 0 4 -12 14 -27 22 -16 7 -31 15 -35 17 -3 2 -9 -2 -13 -8z"/>
<path d="M1626 2079 c-17 -29 -17 -32 -2 -41 9 -5 16 -18 16 -28 0 -14 7 -20
23 -20 13 0 29 -6 36 -12 10 -11 11 -10 6 5 -4 9 -15 17 -25 17 -10 0 -20 7
-24 15 -3 8 0 15 6 15 6 0 8 3 5 7 -4 3 -3 11 3 18 12 14 2 55 -14 55 -6 0
-20 -14 -30 -31z m30 -18 c-9 -10 -13 -22 -9 -26 5 -5 0 -3 -10 4 -16 13 -16
15 -1 32 9 10 21 16 26 13 5 -3 2 -14 -6 -23z"/>
<path d="M1075 2030 c-3 -6 -18 -8 -32 -6 -14 3 -23 2 -19 -1 13 -14 44 -12
56 2 7 8 10 15 7 15 -3 0 -9 -5 -12 -10z"/>
<path d="M1116 1983 c-6 -14 -5 -15 5 -6 7 7 10 15 7 18 -3 3 -9 -2 -12 -12z"/>
<path d="M652 1000 c0 -14 2 -19 5 -12 2 6 2 18 0 25 -3 6 -5 1 -5 -13z"/>
<path d="M672 980 c0 -14 2 -19 5 -12 2 6 2 18 0 25 -3 6 -5 1 -5 -13z"/>
<path d="M937 960 c3 -19 6 -41 6 -47 0 -18 16 -16 23 2 8 20 -4 67 -15 60 -5
-3 -12 1 -15 7 -3 7 -3 -3 1 -22z"/>
<path d="M1147 1096 c-5 -21 -6 -41 -3 -44 12 -11 17 7 14 44 l-3 39 -8 -39z"/>
<path d="M975 786 c-66 -29 -105 -94 -105 -172 0 -153 182 -237 300 -138 37
32 55 66 64 120 12 67 -33 151 -97 186 -38 21 -120 22 -162 4z m157 -18 c75
-44 107 -139 72 -214 -19 -41 -48 -74 -63 -74 -5 0 -11 -5 -13 -12 -6 -18
-134 -19 -149 -2 -6 8 -15 14 -20 14 -15 0 -44 34 -62 72 -18 38 -16 130 3
136 5 2 10 9 10 16 0 16 64 69 92 77 33 9 104 1 130 -13z"/>
<path d="M1062 730 c0 -19 2 -27 5 -17 2 9 2 25 0 35 -3 9 -5 1 -5 -18z"/>
<path d="M1032 730 c0 -14 2 -19 5 -12 2 6 2 18 0 25 -3 6 -5 1 -5 -13z"/>
<path d="M984 699 c14 -20 23 -40 19 -45 -4 -5 1 -2 11 7 15 14 16 20 7 35
-11 17 -11 16 -5 -6 5 -23 3 -22 -26 10 l-31 35 25 -36z"/>
<path d="M920 716 c0 -2 8 -10 18 -17 15 -13 16 -12 3 4 -13 16 -21 21 -21 13z"/>
<path d="M1100 693 l-21 -28 6 25 c5 22 5 23 -6 7 -21 -35 6 -41 30 -8 28 38
20 41 -9 4z"/>
<path d="M1124 678 l-19 -23 23 19 c21 18 27 26 19 26 -2 0 -12 -10 -23 -22z"/>
<path d="M960 686 c0 -2 8 -10 18 -17 15 -13 16 -12 3 4 -13 16 -21 21 -21 13z"/>
<path d="M1150 665 c-14 -8 -20 -14 -15 -14 6 0 21 6 35 14 14 8 21 14 15 14
-5 0 -21 -6 -35 -14z"/>
<path d="M960 650 c8 -5 20 -10 25 -10 6 0 3 5 -5 10 -8 5 -19 10 -25 10 -5 0
-3 -5 5 -10z"/>
<path d="M1033 653 c-7 -2 -13 -9 -13 -15 0 -6 6 -6 15 2 12 10 18 10 30 0 8
-7 15 -19 15 -27 0 -23 -29 -27 -52 -7 -14 13 -19 15 -16 5 7 -25 36 -37 56
-25 44 28 14 87 -35 67z"/>
<path d="M903 633 c9 -2 23 -2 30 0 6 3 -1 5 -18 5 -16 0 -22 -2 -12 -5z"/>
<path d="M1153 633 c9 -2 23 -2 30 0 6 3 -1 5 -18 5 -16 0 -22 -2 -12 -5z"/>
<path d="M978 623 c7 -3 16 -2 19 1 4 3 -2 6 -13 5 -11 0 -14 -3 -6 -6z"/>
<path d="M1040 614 c0 -17 22 -14 28 4 2 7 -3 12 -12 12 -9 0 -16 -7 -16 -16z"/>
<path d="M943 603 c9 -2 23 -2 30 0 6 3 -1 5 -18 5 -16 0 -22 -2 -12 -5z"/>
<path d="M1153 603 c9 -2 23 -2 30 0 6 3 -1 5 -18 5 -16 0 -22 -2 -12 -5z"/>
<path d="M993 593 c4 -6 -10 -25 -31 -43 -29 -25 -30 -27 -6 -11 44 29 58 47
43 57 -7 4 -9 3 -6 -3z"/>
<path d="M1086 581 c-17 -19 -17 -19 1 -17 10 2 16 6 15 11 -2 4 2 12 10 16 7
5 8 9 2 9 -6 0 -19 -9 -28 -19z"/>
<path d="M930 570 c-8 -5 -10 -10 -5 -10 6 0 17 5 25 10 8 5 11 10 5 10 -5 0
-17 -5 -25 -10z"/>
<path d="M1041 554 c0 -11 3 -14 6 -6 3 7 2 16 -1 19 -3 4 -6 -2 -5 -13z"/>
<path d="M1129 556 c13 -16 51 -41 51 -33 0 2 -15 14 -32 27 -21 15 -28 17
-19 6z"/>
<path d="M980 530 c-12 -16 -19 -30 -16 -30 2 0 14 14 26 30 12 17 19 30 16
30 -2 0 -14 -13 -26 -30z"/>
<path d="M1062 525 c0 -16 2 -22 5 -12 2 9 2 23 0 30 -3 6 -5 -1 -5 -18z"/>
<path d="M1080 545 c0 -5 5 -17 10 -25 5 -8 10 -10 10 -5 0 6 -5 17 -10 25 -5
8 -10 11 -10 5z"/>
<path d="M1115 530 c10 -11 20 -20 23 -20 3 0 -3 9 -13 20 -10 11 -20 20 -23
20 -3 0 3 -9 13 -20z"/>
<path d="M1002 505 c-17 -37 -14 -45 4 -12 9 16 14 31 11 33 -2 2 -9 -7 -15
-21z"/>
<path d="M1032 480 c0 -14 2 -19 5 -12 2 6 2 18 0 25 -3 6 -5 1 -5 -13z"/>
<path d="M617 645 c9 -19 18 -33 21 -31 4 5 -26 66 -33 66 -3 0 3 -16 12 -35z"/>
<path d="M1320 711 c0 -5 7 -11 15 -15 9 -3 15 0 15 9 0 8 -7 15 -15 15 -8 0
-15 -4 -15 -9z"/>
<path d="M1409 566 c-9 -17 -14 -37 -12 -43 6 -18 59 -16 77 3 23 22 20 25
-10 9 -39 -20 -55 -10 -42 26 14 41 7 44 -13 5z"/>
<path d="M1450 488 c-12 -22 -12 -22 6 -6 10 10 15 20 12 24 -4 3 -12 -5 -18
-18z"/>
<path d="M1386 485 c-9 -24 -8 -35 5 -35 5 0 8 4 5 9 -4 5 -2 11 4 13 5 2 6 9
1 16 -7 11 -10 10 -15 -3z"/>
<path d="M1301 474 c0 -11 3 -14 6 -6 3 7 2 16 -1 19 -3 4 -6 -2 -5 -13z"/>
<path d="M1280 439 c0 -5 5 -7 10 -4 6 3 10 8 10 11 0 2 -4 4 -10 4 -5 0 -10
-5 -10 -11z"/>
<path d="M1371 1014 c0 -11 3 -14 6 -6 3 7 2 16 -1 19 -3 4 -6 -2 -5 -13z"/>
<path d="M1406 957 c3 -10 9 -15 12 -12 3 3 0 11 -7 18 -10 9 -11 8 -5 -6z"/>
<path d="M1540 835 c0 -8 2 -15 4 -15 2 0 6 7 10 15 3 8 1 15 -4 15 -6 0 -10
-7 -10 -15z"/>
<path d="M870 205 c7 -8 16 -12 21 -10 4 3 17 -3 29 -15 11 -11 20 -16 20 -11
0 14 -50 51 -68 51 -12 0 -12 -3 -2 -15z"/>
<path d="M1480 205 c7 -8 17 -12 22 -9 5 3 17 0 27 -8 9 -7 6 -3 -7 10 -27 26
-63 32 -42 7z"/>
<path d="M498 143 c16 -3 22 -11 22 -30 0 -18 -4 -24 -15 -19 -8 3 -15 0 -15
-7 0 -18 49 -87 62 -87 6 0 2 10 -10 23 -12 13 -19 26 -16 30 4 4 10 24 13 44
5 32 10 38 34 41 26 3 28 1 25 -25 -2 -20 -9 -29 -26 -31 -26 -4 -20 -22 9
-22 14 0 19 -7 19 -24 0 -14 5 -28 10 -31 6 -4 10 20 10 64 l0 71 88 -5 c48
-2 91 -4 95 -4 14 -1 3 -54 -14 -64 -9 -6 -25 -7 -35 -3 -18 7 -18 8 -1 17 31
18 18 26 -35 21 -81 -7 -98 -30 -55 -74 12 -13 16 -16 9 -7 -36 46 33 83 73
39 10 -11 28 -20 40 -20 14 0 26 -8 31 -22 6 -17 9 -2 11 50 3 62 6 72 22 72
11 0 21 -10 25 -22 9 -34 8 -38 -9 -38 -21 0 -19 -13 5 -35 18 -16 20 -16 26
-1 3 9 17 16 30 16 19 0 24 -5 24 -24 0 -14 5 -28 10 -31 6 -4 10 18 10 59 0
36 5 68 10 71 6 4 29 4 50 0 49 -8 55 -34 8 -31 -27 1 -34 -3 -36 -20 -4 -27
25 -56 48 -49 12 4 20 -1 26 -17 6 -17 9 -4 11 47 2 39 9 73 16 77 7 4 -132 7
-308 6 -176 0 -310 -3 -297 -5z m450 -35 c3 -25 0 -28 -27 -28 -31 0 -38 11
-25 45 11 27 48 14 52 -17z m122 -32 c0 -14 -37 -29 -51 -20 -5 2 -6 11 -2 19
7 19 53 20 53 1z"/>
<path d="M1173 143 c4 -3 33 -7 64 -7 47 -1 58 -4 61 -18 3 -15 -4 -18 -37
-18 l-41 0 15 -24 c24 -37 -2 -47 -32 -12 -12 15 -23 23 -23 17 0 -5 11 -22
23 -37 30 -35 63 -28 53 11 -6 22 -3 25 19 25 23 0 25 -4 25 -40 0 -22 5 -40
10 -40 6 0 10 30 10 69 l0 70 55 -2 c55 -2 56 -2 53 -31 -3 -34 -27 -52 -54
-42 -18 7 -18 8 -1 17 9 6 17 16 17 24 0 10 -5 11 -25 2 -31 -15 -31 -18 0
-47 15 -14 31 -21 45 -17 15 4 20 0 20 -13 0 -11 5 -22 10 -25 6 -4 10 19 10
62 l0 68 43 -1 c62 -1 67 -3 67 -19 0 -9 -9 -15 -24 -15 -39 0 -56 -11 -56
-34 0 -25 26 -66 42 -66 6 0 3 9 -6 19 -25 27 -17 55 17 59 25 3 27 1 27 -32
0 -19 5 -38 10 -41 6 -4 10 18 10 57 0 37 5 69 12 76 9 9 -37 12 -207 12 -120
0 -215 -3 -212 -7z"/>
</g>
</svg>
